<?xml version="1.0" encoding="utf-8"?>
<!-- Generator: Adobe Illustrator 25.0.0, SVG Export Plug-In . SVG Version: 6.00 Build 0)  -->
<svg version="1.1" id="Layer_1" xmlns="http://www.w3.org/2000/svg" xmlns:xlink="http://www.w3.org/1999/xlink" x="0px" y="0px"
	 viewBox="0 0 27 27" style="enable-background:new 0 0 27 27;" xml:space="preserve">
<style type="text/css">
	.st0{fill:#FFFFFF;}
</style>
<g>
	<g>
		<path class="st0" d="M13.5,27C6.06,27,0,20.94,0,13.5C0,6.06,6.06,0,13.5,0C20.94,0,27,6.06,27,13.5C27,20.94,20.94,27,13.5,27z
			 M13.5,1.59C6.93,1.59,1.59,6.93,1.59,13.5c0,6.57,5.34,11.91,11.91,11.91c6.57,0,11.91-5.34,11.91-11.91
			C25.41,6.93,20.07,1.59,13.5,1.59z"/>
	</g>
	<g>
		<path class="st0" d="M13.5,26.69l-0.47-0.35c-0.31-0.23-7.65-5.78-7.65-12.84c0-2.94,1.33-6.1,3.85-9.13
			c1.87-2.25,3.72-3.65,3.8-3.7l0.47-0.35l0.47,0.35c0.31,0.23,7.65,5.78,7.65,12.84c0,2.94-1.33,6.1-3.85,9.13
			c-1.87,2.25-3.72,3.64-3.8,3.7L13.5,26.69z M13.5,2.32c-1.58,1.32-6.54,5.9-6.54,11.18c0,5.29,4.96,9.86,6.53,11.18
			c1.58-1.32,6.53-5.9,6.53-11.18C20.03,8.2,15.08,3.64,13.5,2.32z"/>
	</g>
	<g>
		<path class="st0" d="M2.68,20.01l-0.8-1.37c0.21-0.12,5.28-3.04,11.62-3.04s11.41,2.92,11.62,3.04l-0.8,1.37l0.4-0.69l-0.4,0.69
			c-0.05-0.03-4.92-2.83-10.82-2.83C7.61,17.18,2.73,19.98,2.68,20.01z"/>
	</g>
	<g>
		<path class="st0" d="M13.5,11.41c-6.34,0-11.41-2.92-11.62-3.04l0.8-1.37C2.73,7.02,7.61,9.82,13.5,9.82
			c5.89,0,10.77-2.8,10.82-2.83l0.8,1.37C24.91,8.49,19.84,11.41,13.5,11.41z"/>
	</g>
	<g>
		<rect x="12.71" y="1.3" class="st0" width="1.59" height="24.4"/>
	</g>
</g>
</svg>
