<?xml version="1.0" encoding="utf-8"?>
<!-- Generator: Adobe Illustrator 25.0.0, SVG Export Plug-In . SVG Version: 6.00 Build 0)  -->
<svg version="1.1" id="Layer_1" xmlns="http://www.w3.org/2000/svg" xmlns:xlink="http://www.w3.org/1999/xlink" x="0px" y="0px"
	 viewBox="0 0 48 38" style="enable-background:new 0 0 48 38;" xml:space="preserve">
<style type="text/css">
	.st0{fill:#FFFFFF;}
</style>
<g>
	<g>
		<path class="st0" d="M46.07,6.22H1.93C0.86,6.22,0,5.36,0,4.29s0.86-1.93,1.93-1.93h44.14c1.07,0,1.93,0.86,1.93,1.93
			S47.14,6.22,46.07,6.22z"/>
	</g>
	<g>
		<path class="st0" d="M46.07,20.93H1.93C0.86,20.93,0,20.07,0,19c0-1.07,0.86-1.93,1.93-1.93h44.14c1.07,0,1.93,0.86,1.93,1.93
			C48,20.07,47.14,20.93,46.07,20.93z"/>
	</g>
	<g>
		<path class="st0" d="M46.07,35.64H1.93C0.86,35.64,0,34.78,0,33.71s0.86-1.93,1.93-1.93h44.14c1.07,0,1.93,0.86,1.93,1.93
			S47.14,35.64,46.07,35.64z"/>
	</g>
</g>
</svg>
