<?xml version="1.0" encoding="utf-8"?>
<!-- Generator: Adobe Illustrator 25.0.0, SVG Export Plug-In . SVG Version: 6.00 Build 0)  -->
<svg version="1.1" id="Layer_1" xmlns="http://www.w3.org/2000/svg" xmlns:xlink="http://www.w3.org/1999/xlink" x="0px" y="0px"
	 viewBox="0 0 29 29" style="enable-background:new 0 0 29 29;" xml:space="preserve">
<style type="text/css">
	.st0{fill:#FFFFFF;}
</style>
<g>
	<path class="st0" d="M20.07,5.79l-8.48,8.48l-1.64,4.78c1.59-0.55,3.19-1.09,4.78-1.64l8.48-8.48C22.17,7.88,21.12,6.83,20.07,5.79
		 M28.47,5.97c-5.74,5.74-7.11,7.11-12.85,12.85c-1.75,0.6-3.5,1.2-5.26,1.8c-1.26,0.43-2.35-0.67-2.01-1.94l1.82-5.31
		c6.13-6.13,7.85-7.85,12.85-12.85c0.71-0.71,1.87-0.71,2.58,0l2.87,2.87C29.18,4.11,29.17,5.27,28.47,5.97z M24.82,7.32l2.5-2.5
		c0.08-0.08,0.08-0.2,0-0.27l-2.87-2.87c-0.08-0.08-0.19-0.08-0.27,0l-2.5,2.5L24.82,7.32z"/>
	<path class="st0" d="M2.03,2.98h10.98v2.08H2.08v21.86h21.87V15.99h2.08v10.97c0,0.27-0.06,0.54-0.16,0.78
		c-0.1,0.25-0.25,0.47-0.44,0.66c-0.19,0.19-0.41,0.34-0.66,0.44c-0.24,0.1-0.5,0.16-0.78,0.16H2.03c-0.27,0-0.54-0.06-0.78-0.16
		c-0.25-0.1-0.47-0.25-0.66-0.44c-0.19-0.19-0.34-0.41-0.44-0.66C0.06,27.5,0,27.24,0,26.97V5.02c0-0.27,0.06-0.54,0.16-0.78
		c0.1-0.25,0.25-0.47,0.44-0.66c0.19-0.19,0.41-0.34,0.66-0.44C1.5,3.04,1.76,2.98,2.03,2.98"/>
</g>
</svg>
