<?xml version="1.0" encoding="utf-8"?>
<!-- Generator: Adobe Illustrator 25.0.0, SVG Export Plug-In . SVG Version: 6.00 Build 0)  -->
<svg version="1.1" id="Layer_1" xmlns="http://www.w3.org/2000/svg" xmlns:xlink="http://www.w3.org/1999/xlink" x="0px" y="0px"
	 viewBox="0 0 48 46" style="enable-background:new 0 0 48 46;" xml:space="preserve">
<style type="text/css">
	.st0{fill:#FFFFFF;}
</style>
<g>
	<g>
		<path class="st0" d="M24,23.41c-6.45,0-11.71-5.25-11.71-11.71S17.54,0,24,0s11.71,5.25,11.71,11.71S30.45,23.41,24,23.41z
			 M24,3.15c-4.72,0-8.55,3.84-8.55,8.55s3.84,8.55,8.55,8.55c4.72,0,8.55-3.84,8.55-8.55S28.72,3.15,24,3.15z"/>
	</g>
	<g>
		<path class="st0" d="M46.51,46c-0.87,0-1.58-0.71-1.58-1.58c0-11.54-9.39-20.94-20.94-20.94S3.06,32.88,3.06,44.42
			c0,0.87-0.71,1.58-1.58,1.58s-1.58-0.71-1.58-1.58c0-13.28,10.81-24.09,24.09-24.09c13.28,0,24.09,10.81,24.09,24.09
			C48.09,45.29,47.38,46,46.51,46z"/>
	</g>
</g>
</svg>
