<?xml version="1.0" encoding="utf-8"?>
<!-- Generator: Adobe Illustrator 25.2.2, SVG Export Plug-In . SVG Version: 6.00 Build 0)  -->
<svg version="1.1" id="Layer_1" xmlns="http://www.w3.org/2000/svg" xmlns:xlink="http://www.w3.org/1999/xlink" x="0px" y="0px"
	 viewBox="0 0 487.73 56.62" style="enable-background:new 0 0 487.73 56.62;" xml:space="preserve">
<style type="text/css">
	.st0{fill:#41AEA9;}
	.st1{fill:#FFC44D;}
	g path, g polygon, g rect{fill:#fff;}
</style>
<g>
	<g>
		<path d="M158.43,33.76c0,3.08-0.43,5.23-1.28,6.37c-0.81,1.09-2.25,1.64-4.29,1.64s-3.49-0.56-4.32-1.66
			c-0.86-1.16-1.3-3.29-1.3-6.35V22.15h-5.26v13.66c0,3.51,0.93,6.23,2.77,8.08c1.84,1.86,4.53,2.8,8.01,2.8
			c3.51,0,6.22-0.94,8.06-2.78c1.84-1.85,2.77-4.57,2.77-8.09V22.15h-5.16V33.76z"/>
		<path d="M183.24,21.35c-1.87,0-3.54,0.38-4.97,1.12c-0.93,0.48-1.79,1.14-2.55,1.95v-2.26h-4.99v23.59h5.04V33.57
			c0-1.79,0.1-3.05,0.28-3.74c0.18-0.66,0.48-1.26,0.89-1.77c0.55-0.68,1.26-1.22,2.1-1.59c0.85-0.38,1.81-0.57,2.86-0.57
			c1.79,0,3.11,0.48,3.93,1.43c0.85,0.98,1.27,2.53,1.27,4.63v13.78h5.16V29.91c0-2.66-0.81-4.77-2.42-6.29
			C188.26,22.11,186.03,21.35,183.24,21.35z"/>
		<polygon points="226.23,8.76 200.52,8.76 200.52,14.06 210.63,14.06 210.63,45.74 216.18,45.74 216.18,14.06 226.23,14.06 		"/>
		<path d="M238.28,21.52c-0.45-0.08-0.93-0.12-1.43-0.12c-1.79,0-3.33,0.46-4.59,1.36c-0.79,0.57-1.55,1.37-2.27,2.41v-3.01h-4.65
			v23.59h5.04V34.23c0-2.78,0.47-4.88,1.4-6.22c0.89-1.29,2.21-1.91,4.02-1.91c0.32,0,0.66,0.03,1.01,0.1
			c0.36,0.07,0.75,0.17,1.16,0.31l0.58,0.19l1.7-4.62l-0.61-0.21C239.19,21.71,238.73,21.59,238.28,21.52z"/>
		<path d="M260.82,24.82c-0.69-0.87-1.48-1.58-2.37-2.13c-1.47-0.89-3.22-1.35-5.2-1.35c-3.36,0-6.09,1.17-8.11,3.47
			c-2,2.28-3.01,5.37-3.01,9.19c0,3.77,1.04,6.85,3.1,9.17c2.08,2.33,4.84,3.52,8.22,3.52c1.83,0,3.52-0.46,5-1.37
			c0.92-0.57,1.75-1.3,2.47-2.19v2.61h4.97V22.15h-5.07V24.82z M259.02,28.48c1.26,1.41,1.9,3.32,1.9,5.67
			c0,2.38-0.6,4.25-1.78,5.54c-1.18,1.3-2.78,1.93-4.89,1.93c-2.21,0-3.85-0.65-5.03-1.98c-1.18-1.34-1.78-3.3-1.78-5.83
			c0-2.36,0.59-4.22,1.76-5.51s2.78-1.92,4.9-1.92C256.15,26.39,257.76,27.07,259.02,28.48z"/>
		<path d="M290.25,24.82c-0.68-0.87-1.47-1.58-2.36-2.12c-1.46-0.9-3.2-1.35-5.16-1.35c-3.36,0-6.1,1.17-8.13,3.48
			c-2.01,2.29-3.04,5.38-3.04,9.18c0,3.77,1.04,6.85,3.1,9.17c2.08,2.33,4.84,3.52,8.22,3.52c1.83,0,3.52-0.47,5.01-1.39
			c0.92-0.57,1.75-1.3,2.46-2.17v2.61h4.97V6.66h-5.07V24.82z M288.44,28.46c1.27,1.39,1.91,3.28,1.91,5.59
			c0,2.43-0.61,4.34-1.83,5.68c-1.21,1.34-2.86,1.99-5.04,1.99c-2.08,0-3.67-0.69-4.84-2.1c-1.18-1.43-1.78-3.47-1.78-6.05
			c0-2.27,0.58-4.05,1.74-5.31c1.16-1.26,2.74-1.87,4.83-1.87C285.53,26.39,287.17,27.07,288.44,28.46z"/>
		<path d="M319.81,37.7c-0.87,1.53-1.88,2.69-3,3.44c-1.09,0.73-2.34,1.1-3.7,1.1c-2.03,0-3.63-0.66-4.88-2.01
			c-1.19-1.29-1.83-2.99-1.88-5.08h17.69v-1.39c0-3.8-1.03-6.86-3.06-9.09c-2.04-2.24-4.84-3.38-8.31-3.38
			c-3.44,0-6.29,1.19-8.49,3.54c-2.19,2.34-3.29,5.37-3.29,9.02c0,3.79,1.12,6.91,3.32,9.26c2.21,2.38,5.14,3.58,8.71,3.58
			c2.4,0,4.54-0.55,6.37-1.62c1.83-1.08,3.35-2.69,4.53-4.8l0.28-0.51l-3.95-2.65L319.81,37.7z M308.29,27.41
			c1.13-1.02,2.51-1.51,4.22-1.51c1.88,0,3.37,0.48,4.42,1.44c0.93,0.84,1.48,1.97,1.69,3.46h-12.17
			C306.71,29.4,307.31,28.29,308.29,27.41z"/>
		<path d="M368.51,13.57c-1.84-1.79-4-3.19-6.42-4.16c-4.82-1.93-10.27-1.95-15.11,0c-2.41,0.97-4.57,2.37-6.41,4.16
			c-1.88,1.83-3.32,3.94-4.3,6.27c-0.98,2.34-1.48,4.85-1.48,7.48c0,2.61,0.5,5.11,1.48,7.44c0.98,2.33,2.43,4.44,4.3,6.26
			c1.86,1.81,4.02,3.22,6.42,4.19c2.4,0.98,4.93,1.47,7.53,1.47c2.59,0,5.13-0.5,7.55-1.47c2.42-0.98,4.58-2.39,6.44-4.19
			c1.86-1.81,3.29-3.91,4.27-6.24c0.97-2.33,1.47-4.84,1.47-7.47c0-2.64-0.49-5.16-1.47-7.5C371.8,17.48,370.37,15.38,368.51,13.57z
			 M354.52,13.16c1.88,0,3.68,0.35,5.36,1.05c1.68,0.7,3.21,1.73,4.55,3.06c1.32,1.32,2.34,2.86,3.05,4.58s1.06,3.56,1.06,5.47
			c0,1.89-0.35,3.71-1.05,5.4c-0.7,1.69-1.73,3.22-3.06,4.55c-1.35,1.35-2.89,2.39-4.57,3.1c-1.68,0.7-3.48,1.06-5.34,1.06
			c-1.88,0-3.67-0.35-5.34-1.05c-1.67-0.7-3.2-1.74-4.57-3.11c-1.35-1.37-2.39-2.91-3.08-4.58c-0.69-1.67-1.04-3.48-1.04-5.37
			c0-1.91,0.35-3.74,1.05-5.45c0.7-1.7,1.73-3.25,3.07-4.61c1.3-1.33,2.82-2.36,4.5-3.06C350.8,13.51,352.62,13.16,354.52,13.16z"/>
		<path d="M392.94,21.35c-1.85,0-3.55,0.47-5.06,1.39c-0.93,0.57-1.75,1.29-2.46,2.16v-2.74h-4.89v34.47h5.04V43.2
			c0.69,0.88,1.49,1.59,2.39,2.14c1.46,0.9,3.19,1.35,5.14,1.35c3.38,0,6.12-1.17,8.15-3.47c2.01-2.28,3.02-5.38,3.02-9.21
			c0-3.77-1.04-6.85-3.09-9.15C399.1,22.53,396.33,21.35,392.94,21.35z M398.95,34.47c0,2.28-0.59,4.08-1.75,5.33
			c-1.16,1.26-2.73,1.87-4.8,1.87c-2.11,0-3.76-0.68-5.03-2.06c-1.27-1.39-1.91-3.27-1.91-5.6c0-2.43,0.62-4.35,1.84-5.7
			c1.22-1.35,2.86-2.01,5.02-2.01c2.1,0,3.68,0.69,4.85,2.11C398.35,29.84,398.95,31.88,398.95,34.47z"/>
		<polygon points="415.85,13.15 410.68,13.15 410.68,22.15 406.58,22.15 406.58,26.56 410.68,26.56 410.68,45.74 415.85,45.74 
			415.85,26.56 419.95,26.56 419.95,22.15 415.85,22.15 		"/>
		<path d="M426.76,8.61c-0.95,0-1.77,0.34-2.43,1s-1,1.48-1,2.41c0,0.97,0.34,1.79,1,2.45c0.66,0.65,1.48,0.99,2.43,0.99
			c0.95,0,1.76-0.33,2.42-0.99s0.99-1.46,0.99-2.4c0-0.95-0.34-1.77-1-2.44C428.51,8.95,427.69,8.61,426.76,8.61z"/>
		<rect x="424.23" y="22.15" width="5.11" height="23.59"/>
		<path d="M457.14,25.06c-1.24-1.21-2.64-2.14-4.16-2.77c-1.53-0.63-3.16-0.95-4.86-0.95c-1.73,0-3.39,0.32-4.92,0.94
			s-2.92,1.54-4.13,2.73s-2.14,2.57-2.78,4.1c-0.63,1.53-0.95,3.17-0.95,4.89s0.32,3.36,0.95,4.86s1.56,2.88,2.77,4.11
			c1.21,1.19,2.6,2.12,4.14,2.76s3.19,0.96,4.91,0.96c1.67,0,3.3-0.33,4.84-0.98c1.54-0.65,2.95-1.59,4.19-2.81
			c1.21-1.18,2.15-2.54,2.78-4.05s0.95-3.14,0.95-4.84s-0.32-3.34-0.95-4.87S458.35,26.24,457.14,25.06z M455.51,34.01
			c0,2.21-0.71,4.03-2.17,5.56c-1.45,1.52-3.16,2.26-5.23,2.26c-2.09,0-3.82-0.74-5.28-2.26c-1.47-1.53-2.19-3.34-2.19-5.55
			s0.71-4.03,2.18-5.56c1.46-1.52,3.19-2.26,5.29-2.26c2.07,0,3.78,0.74,5.23,2.26C454.8,29.98,455.51,31.8,455.51,34.01z"/>
		<path d="M485.68,23.62c-1.59-1.51-3.82-2.27-6.61-2.27c-1.87,0-3.54,0.38-4.98,1.12c-0.93,0.48-1.79,1.14-2.55,1.95v-2.26h-4.99
			v23.59h5.04V33.57c0-1.79,0.1-3.05,0.28-3.74c0.18-0.66,0.48-1.26,0.89-1.77c0.55-0.68,1.26-1.22,2.1-1.59
			c0.85-0.38,1.81-0.57,2.86-0.57c1.79,0,3.11,0.48,3.93,1.43c0.85,0.97,1.27,2.53,1.27,4.63v13.78h5.16V29.91
			C488.1,27.25,487.29,25.13,485.68,23.62z"/>
		<polygon points="117.34,45.74 122.84,45.74 122.84,28.1 137.43,28.1 137.43,22.88 122.84,22.88 122.84,13.89 137.43,13.89 
			137.43,8.76 117.34,8.76 		"/>
	</g>
	<g>
		<polygon class="st0" points="92.24,56.62 99.34,49.52 64.57,14.76 29.8,49.52 36.9,56.62 49.85,43.68 62.79,56.62 69.89,49.52 
			56.95,36.58 64.57,28.95 		"/>
		<g>
			<polygon class="st1" points="42.75,36.58 49.85,29.48 42.2,21.84 56.93,7.11 49.83,0.01 0.35,49.52 7.45,56.62 35.12,28.95 			
				"/>
		</g>
	</g>
</g>
</svg>
