<svg xmlns="http://www.w3.org/2000/svg" width="200" height="200" viewBox="0 0 200 200"><path fill="#035" d="M37.294 112.744c6.78 0 13.053-.02 18.946-.047 5.537.508 9.946-.793 12.952-4.36l23.756 49.367 5.66-31.03-4-1.813.128-4.415h17.137l.13 4.416-4.01 1.814 5.436 29.702 20.303-46.16c3.047 1.51 7.07 1.924 11.83 1.562 5.49-.024 11.31-.05 17.56-.05 16.167 15.153 26.548 50.852 23.99 74.138-4.99 3.438-13.577 6.28-24.358 8.477l-5.23.986-5.668.927c-31.488 4.713-74.964 5.037-105.49.63l-7.836-1.157-3.59-.854c-10.53-2.248-18.53-5.238-22.438-9.01.433-20.444 4.235-55.37 24.792-73.122z"/><circle fill="#035" cx="102" cy="52" r="50"/><circle fill="#035" cx="186.895" cy="166.23" r="9.062"/><path fill="#FFF" d="M167.697 135.396c-17.84 0-32.303 14.463-32.303 32.302 0 17.842 14.464 32.303 32.303 32.303C185.537 200 200 185.54 200 167.7c0-17.84-14.463-32.302-32.303-32.302zm16.896 36.896h-11.22v11.085c0 3.135-2.54 5.676-5.676 5.676s-5.675-2.54-5.675-5.676v-11.085h-11.22c-2.763 0-5-2.238-5-5s2.237-5 5-5h11.22V152.02c0-3.136 2.54-5.677 5.675-5.677s5.676 2.54 5.676 5.677v10.27h11.22c2.762 0 5 2.24 5 5.002s-2.24 5-5 5z"/></svg>