<svg xmlns="http://www.w3.org/2000/svg" width="200" height="200" viewBox="0 0 200 200"><path fill="#035" d="M173.913 200H26.087C11.68 200 0 188.32 0 173.913V86.087c0-13.165 9.787-23.943 22.46-25.722l9.93-27.287c.946-2.594 3.815-3.932 6.41-2.987l25.657 9.336 8.356-22.957c.945-2.596 3.814-3.933 6.41-2.988l23.14 8.422L109.1 3.378c.947-2.593 3.814-3.93 6.41-2.987l61.082 22.23c2.596.95 3.93 3.814 2.986 6.41L168.308 60h5.605C188.32 60 200 71.68 200 86.087v87.826C200 188.32 188.32 200 173.913 200zM40.078 41.196L33.235 60H91.74L40.077 41.196zm64.9-7.696c-.48-.026-.964-.048-1.438-.217-.474-.174-.856-.47-1.243-.76L80.5 24.586l-6.648 18.26 26.027 9.475c2.595.943 3.933 3.813 2.99 6.41L102.403 60h23.734l6.044-16.6-27.203-9.9zm63.492-3.19L116.787 11.5l-5.03 13.822 28.543 10.39c2.596.945 3.935 3.814 2.99 6.41L136.784 60h20.882l10.805-29.69z"/><path fill="#FFF" d="M99.763 184.38v-7.63c-5.017-.634-8.41-1.758-11.55-3.375-3.142-1.616-5.854-4.228-8.14-7.833-2.286-3.604-3.615-8.01-3.986-13.213l10.09-1.897c.782 5.39 2.156 9.35 4.127 11.876 2.824 3.566 5.52 4.296 9.46 4.704v-30.687c-4.126-.78-7.658-2.378-11.97-4.794-3.196-1.784-5.658-4.256-7.386-7.416-1.728-3.158-2.593-6.745-2.593-10.76 0-7.136 2.527-12.915 7.583-17.338 3.382-2.974 7.712-5.253 14.366-5.922v-5.94h8.313v5.94c5.836.557 8.745 2.726 12.165 5.586 4.386 3.644 7.025 8.64 7.917 14.998l-10.37 1.56c-.596-3.937-1.85-6.942-3.708-9.06-.893-1.016-2.734-3.483-6.005-4.152v28.935c5.054 1.266 6.684 2.25 8.318 2.956 3.122 1.376 5.67 3.05 7.638 5.02 1.97 1.97 3.484 4.31 4.544 7.023 1.06 2.714 1.59 5.65 1.59 8.81 0 6.95-2.213 12.748-6.635 17.394-4.424 4.647-8.43 7.137-15.455 7.47v7.743h-8.314zm0-85.46c-3.902.595-6.292 2.155-8.54 4.683-2.25 2.527-3.374 5.52-3.374 8.976 0 3.42.956 6.28 2.87 8.585 1.915 2.305 4.47 4.144 9.043 5.52V98.918zm8.315 68.21c3.902-.482 5.3-1.13 7.954-3.93 2.127-2.242 3.82-6.484 3.82-10.76 0-3.642-.902-6.57-2.705-8.78-1.804-2.21-3.68-4.19-9.07-5.94v29.41z"/></svg>